{
    "asset": {
        "generator": "https://3dviewer.net",
        "version": "2.0"
    },
    "scene": 0,
    "scenes": [
        {
            "nodes": [
                0
            ]
        }
    ],
    "nodes": [
        {
            "mesh": 0
        }
    ],
    "materials": [
        {
            "name": "9A9A9A",
            "pbrMetallicRoughness": {
                "baseColorFactor": [
                    0.3231432091022285,
                    0.3231432091022285,
                    0.3231432091022285,
                    1
                ]
            },
            "emissiveFactor": [
                0,
                0,
                0
            ],
            "doubleSided": true,
            "alphaMode": "OPAQUE"
        },
        {
            "name": "0017FF",
            "pbrMetallicRoughness": {
                "baseColorFactor": [
                    0,
                    0.008568125615105716,
                    1,
                    1
                ]
            },
            "emissiveFactor": [
                0,
                0,
                0
            ],
            "doubleSided": true,
            "alphaMode": "OPAQUE"
        }
    ],
    "meshes": [
        {
            "name": "KF301-5.0-2P",
            "primitives": [
                {
                    "attributes": {
                        "POSITION": 1,
                        "NORMAL": 2
                    },
                    "mode": 4,
                    "material": 0,
                    "indices": 0
                },
                {
                    "attributes": {
                        "POSITION": 4,
                        "NORMAL": 5
                    },
                    "mode": 4,
                    "material": 1,
                    "indices": 3
                }
            ]
        }
    ],
    "buffers": [
        {
            "uri": "model.bin",
            "byteLength": 77856
        }
    ],
    "bufferViews": [
        {
            "buffer": 0,
            "byteOffset": 0,
            "byteLength": 13896
        },
        {
            "buffer": 0,
            "byteOffset": 13896,
            "byteLength": 15528
        },
        {
            "buffer": 0,
            "byteOffset": 29424,
            "byteLength": 15528
        },
        {
            "buffer": 0,
            "byteOffset": 44952,
            "byteLength": 10584
        },
        {
            "buffer": 0,
            "byteOffset": 55536,
            "byteLength": 11160
        },
        {
            "buffer": 0,
            "byteOffset": 66696,
            "byteLength": 11160
        }
    ],
    "accessors": [
        {
            "bufferView": 0,
            "byteOffset": 0,
            "componentType": 5125,
            "count": 3474,
            "type": "SCALAR"
        },
        {
            "bufferView": 1,
            "byteOffset": 0,
            "componentType": 5126,
            "count": 1294,
            "min": [
                -4.4,
                -2.2,
                -3.6
            ],
            "max": [
                4.4,
                4,
                9
            ],
            "type": "VEC3"
        },
        {
            "bufferView": 2,
            "byteOffset": 0,
            "componentType": 5126,
            "count": 1294,
            "type": "VEC3"
        },
        {
            "bufferView": 3,
            "byteOffset": 0,
            "componentType": 5125,
            "count": 2646,
            "type": "SCALAR"
        },
        {
            "bufferView": 4,
            "byteOffset": 0,
            "componentType": 5126,
            "count": 930,
            "min": [
                -5,
                -3.2,
                0
            ],
            "max": [
                5,
                4.5,
                10
            ],
            "type": "VEC3"
        },
        {
            "bufferView": 5,
            "byteOffset": 0,
            "componentType": 5126,
            "count": 930,
            "type": "VEC3"
        }
    ]
}